<?xml version="1.0" standalone="no"?>
<!DOCTYPE svg PUBLIC "-//W3C//DTD SVG 20010904//EN"
 "http://www.w3.org/TR/2001/REC-SVG-20010904/DTD/svg10.dtd">
<svg version="1.0" xmlns="http://www.w3.org/2000/svg"
 width="500.000000pt" height="500.000000pt" viewBox="0 0 500.000000 500.000000"
 preserveAspectRatio="xMidYMid meet">

<g transform="translate(0.000000,500.000000) scale(0.100000,-0.100000)"
fill="#000000" stroke="none">
<path d="M2160 4989 c-391 -27 -800 -190 -1109 -442 -691 -563 -905 -1509
-522 -2312 176 -370 495 -698 857 -882 l94 -48 2 -648 3 -648 667 554 666 553
144 12 c378 31 679 135 984 341 438 296 731 745 826 1271 24 135 29 429 9 570
-129 913 -868 1605 -1795 1680 -147 11 -654 11 -826 -1z m866 -70 c432 -42
842 -237 1154 -548 161 -160 259 -297 361 -502 184 -371 235 -783 149 -1197
-38 -182 -127 -401 -236 -580 -220 -363 -607 -667 -1024 -806 -169 -56 -405
-96 -571 -96 l-59 0 -623 -517 -622 -516 -3 596 -2 597 -93 46 c-340 170 -603
413 -797 737 -153 257 -236 541 -247 852 -9 252 17 438 93 665 228 683 874
1193 1609 1269 119 12 785 13 911 0z"/>
<path d="M1840 3834 c-103 -22 -186 -68 -265 -149 -187 -189 -226 -426 -107
-648 38 -71 56 -90 667 -677 377 -363 376 -361 387 -358 13 5 908 881 943 924
184 224 179 535 -13 736 -106 111 -226 166 -383 175 -202 12 -347 -60 -490
-241 l-62 -80 -36 45 c-187 236 -398 326 -641 273z"/>
</g>
</svg>
